<svg width="48" height="47" viewBox="0 0 48 47" fill="none" xmlns="http://www.w3.org/2000/svg">
<path d="M43.0552 25.9226C44.0106 23.0006 44.2456 19.9 43.7411 16.8727C43.2367 13.8455 42.0069 10.9769 40.1519 8.50007C38.2968 6.02322 35.8687 4.00792 33.0647 2.61788C30.2608 1.22783 27.1601 0.502223 24.0145 0.500005C20.8689 0.497787 17.7671 1.21902 14.9611 2.60511C12.1551 3.9912 9.72397 6.00307 7.86521 8.4773C6.00646 10.9515 4.77249 13.8183 4.26353 16.8449C3.75457 19.8714 3.98498 22.9723 4.93603 25.8957L10.0252 24.3219C9.32804 22.1789 9.15914 19.9057 9.53223 17.6871C9.90532 15.4686 10.8099 13.367 12.1724 11.5533C13.535 9.73959 15.3171 8.26479 17.3741 7.24872C19.431 6.23265 21.7047 5.70395 24.0106 5.70558C26.3165 5.7072 28.5894 6.2391 30.6449 7.25808C32.7003 8.27705 34.4802 9.75436 35.8401 11.57C37.1999 13.3857 38.1014 15.4884 38.4712 17.7076C38.841 19.9267 38.6687 22.1996 37.9684 24.3416L43.0552 25.9226Z" fill="#C39F47"/>
<rect y="23.5" width="48" height="5" rx="2.5" fill="#C39F47"/>
<path d="M11.1823 46.4769C5.50924 46.4769 4.07699 34.5 3 28.5H45C42.3817 43.6805 37.7268 46.8098 35.7267 46.4769H11.1823Z" fill="#C39F47"/>
</svg>
