<svg width="50" height="47" viewBox="0 0 50 47" fill="none" xmlns="http://www.w3.org/2000/svg">
<path d="M22.7234 41.7139L22.7205 41.7113C16.2437 35.8222 11.0288 31.0694 7.40959 26.6295C3.81256 22.2168 2 18.3571 2 14.2875C2 7.64324 7.15732 2.5 13.75 2.5C17.4934 2.5 21.1208 4.25775 23.4806 7.01469L25 8.78985L26.5194 7.01469C28.8792 4.25775 32.5066 2.5 36.25 2.5C42.8427 2.5 48 7.64324 48 14.2875C48 18.3571 46.1874 22.2168 42.5904 26.6295C38.9712 31.0694 33.7563 35.8222 27.2795 41.7113L27.2766 41.7139L25 43.792L22.7234 41.7139Z" stroke="#C39F47" stroke-width="4"/>
</svg>
