<svg width="23" height="22" viewBox="0 0 23 22" fill="none" xmlns="http://www.w3.org/2000/svg">
<path d="M21.9133 22L13.5043 13.5921C12.8329 14.1641 12.0607 14.6067 11.1879 14.92C10.315 15.2333 9.4377 15.3899 8.55589 15.3899C6.40553 15.3899 4.58551 14.6456 3.09584 13.157C1.60617 11.6675 0.861328 9.8482 0.861328 7.69899C0.861328 5.54979 1.60527 3.72955 3.09315 2.23827C4.58193 0.746089 6.40105 0 8.55052 0C10.7009 0 12.5218 0.744746 14.0133 2.23424C15.5047 3.72373 16.2505 5.54397 16.2505 7.69497C16.2505 8.62769 16.0853 9.53043 15.7549 10.4032C15.4237 11.2759 14.9895 12.0225 14.4524 12.6428L22.8613 21.0494L21.9119 22H21.9133ZM8.55589 14.0459C10.3374 14.0459 11.8419 13.4327 13.0692 12.2064C14.2957 10.9801 14.9089 9.47582 14.9089 7.69362C14.9089 5.91232 14.2957 4.4085 13.0692 3.18218C11.8428 1.95585 10.3388 1.34269 8.55723 1.34269C6.77571 1.34269 5.27127 1.95585 4.0439 3.18218C2.81742 4.4085 2.20418 5.91232 2.20418 7.69362C2.20418 9.47493 2.81742 10.9787 4.0439 12.2051C5.27037 13.4314 6.77437 14.0459 8.55589 14.0459Z" fill="#9A9A9A"/>
</svg>
