<svg width="65" height="84" viewBox="0 0 65 84" fill="none" xmlns="http://www.w3.org/2000/svg">
<mask id="path-1-inside-1_455_89" fill="white">
<path d="M17.0792 32.7424C13.7974 36.0131 11.5087 40.217 10.491 44.8431C9.47343 49.4693 9.7708 54.3185 11.347 58.8013C12.9232 63.284 15.7104 67.2074 19.3698 70.0944C23.0292 72.9815 27.4031 74.7079 31.9601 75.0638C36.517 75.4197 41.0606 74.3899 45.0387 72.0993C49.0168 69.8088 52.258 66.3563 54.3684 62.1615C56.4788 57.9666 57.3674 53.2101 56.9263 48.47C56.4853 43.7299 54.7335 39.2104 51.8839 35.4608L49.9401 37.0561C52.489 40.41 54.0559 44.4525 54.4504 48.6923C54.8449 52.9321 54.0501 57.1866 52.1624 60.9387C50.2748 64.6908 47.3757 67.7789 43.8174 69.8277C40.2592 71.8765 36.1951 72.7976 32.1192 72.4793C28.0432 72.1609 24.1308 70.6167 20.8577 68.0344C17.5845 65.4521 15.0915 61.9428 13.6817 57.9331C12.2718 53.9235 12.0058 49.5861 12.916 45.4482C13.8262 41.3103 15.8735 37.5501 18.8089 34.6246L17.0792 32.7424Z"/>
</mask>
<path d="M17.0792 32.7424C13.7974 36.0131 11.5087 40.217 10.491 44.8431C9.47343 49.4693 9.7708 54.3185 11.347 58.8013C12.9232 63.284 15.7104 67.2074 19.3698 70.0944C23.0292 72.9815 27.4031 74.7079 31.9601 75.0638C36.517 75.4197 41.0606 74.3899 45.0387 72.0993C49.0168 69.8088 52.258 66.3563 54.3684 62.1615C56.4788 57.9666 57.3674 53.2101 56.9263 48.47C56.4853 43.7299 54.7335 39.2104 51.8839 35.4608L49.9401 37.0561C52.489 40.41 54.0559 44.4525 54.4504 48.6923C54.8449 52.9321 54.0501 57.1866 52.1624 60.9387C50.2748 64.6908 47.3757 67.7789 43.8174 69.8277C40.2592 71.8765 36.1951 72.7976 32.1192 72.4793C28.0432 72.1609 24.1308 70.6167 20.8577 68.0344C17.5845 65.4521 15.0915 61.9428 13.6817 57.9331C12.2718 53.9235 12.0058 49.5861 12.916 45.4482C13.8262 41.3103 15.8735 37.5501 18.8089 34.6246L17.0792 32.7424Z" stroke="white" stroke-width="20" mask="url(#path-1-inside-1_455_89)"/>
<path d="M32.304 68.668L28.1695 21.7237C26.7913 22.3333 22.204 22.5162 14.8801 18.3705C5.72513 13.1883 1 7.39651 1 3.43367C1 -0.529156 9.85962 0.99501 17.2426 3.43367C24.6257 5.87234 28.1695 18.0657 28.1695 19.8947" stroke="#FFFCFC" stroke-width="1.5" stroke-linecap="round"/>
<path d="M32.3041 68.6687L35.2996 34.634C36.2981 35.076 39.6217 35.2086 44.928 32.203C51.5609 28.4459 54.9844 24.2468 54.9844 21.3738C54.9844 18.5007 48.5654 19.6058 43.2163 21.3738C37.8672 23.1418 35.2996 31.982 35.2996 33.308" stroke="#FFFCFC" stroke-width="1.5" stroke-linecap="round"/>
<path d="M28.0804 20.4988C21.1268 16.7174 15.7545 10.7912 13.9375 8.30078" stroke="#FFFCFC" stroke-width="1.5" stroke-linecap="round"/>
<path d="M35.4082 33.9422C35.9001 33.2797 37.7102 31.4656 41.0155 29.5088C44.3209 27.552 47.5082 26.2475 48.6887 25.8398" stroke="#FFFCFC" stroke-width="1.5" stroke-linecap="round"/>
</svg>
